<?xml version="1.0" standalone="no"?>
<!DOCTYPE svg PUBLIC "-//W3C//DTD SVG 20010904//EN"
 "http://www.w3.org/TR/2001/REC-SVG-20010904/DTD/svg10.dtd">
<svg version="1.0" xmlns="http://www.w3.org/2000/svg"
 width="360.000000pt" height="360.000000pt" viewBox="0 0 360.000000 360.000000"
 preserveAspectRatio="xMidYMid meet">
<metadata>
Created by potrace 1.14, written by Peter Selinger 2001-2017
</metadata>
<g transform="translate(0.000000,360.000000) scale(0.100000,-0.100000)"
fill="#000000" stroke="none">
<path d="M689 3516 c-2 -2 -20 -7 -39 -10 -106 -17 -243 -84 -331 -164 -105
-95 -167 -193 -211 -332 l-23 -75 0 -1135 c0 -917 3 -1146 13 -1190 8 -30 34
-97 58 -148 38 -78 59 -107 132 -180 98 -99 196 -155 332 -192 73 -20 99 -20
1205 -17 1264 3 1162 -3 1320 77 44 22 94 52 110 66 17 14 37 31 45 38 38 28
126 147 157 213 72 151 67 56 70 1303 l3 1125 -23 90 c-34 134 -86 224 -187
326 -71 71 -101 93 -180 131 -166 82 -106 78 -1349 78 -604 0 -1100 -2 -1102
-4z"/>
</g>
</svg>
